# Blender 4.0.1
# www.blender.org
mtllib car_wheel.mtl
o Wheel
v -0.251583 -0.201946 0.047181
v -0.251583 -0.052010 0.200785
v -0.251583 -0.015916 0.206954
v -0.251583 0.176557 0.111874
v -0.251583 0.193579 0.079466
v -0.251583 0.162598 -0.132901
v -0.251583 0.137024 -0.159099
v -0.251583 -0.074596 -0.195269
v -0.251583 -0.107424 -0.179052
v -0.251583 -0.207231 0.010960
v -0.268211 0.045344 -0.112581
v -0.268211 0.121280 0.010276
v -0.268211 -0.119908 -0.030949
v -0.268211 -0.105814 0.065656
v -0.268211 -0.007452 -0.121606
v -0.268211 0.027859 0.120432
v -0.268211 0.000345 -0.000295
v -0.268211 -0.095007 -0.078354
v -0.268211 0.075878 0.096710
v -0.268211 -0.068407 0.103978
v -0.268211 0.113550 -0.042708
v -0.199021 -0.197471 0.062250
v -0.199021 -0.066970 0.195943
v -0.199021 -0.000196 0.207356
v -0.199021 0.167327 0.124601
v -0.199021 0.198820 0.064645
v -0.199021 0.171854 -0.120193
v -0.199021 0.124543 -0.168661
v -0.199021 -0.059645 -0.200142
v -0.199021 -0.120378 -0.170141
v -0.199021 -0.207247 -0.004760
v -0.205474 -0.121824 -0.053672
v -0.205474 -0.114380 -0.067842
v -0.205474 -0.090052 0.098912
v -0.205474 0.128951 -0.026252
v -0.205474 0.131262 -0.010414
v -0.205474 0.064935 0.115858
v -0.205474 0.050581 0.122950
v -0.205474 -0.101234 0.087457
v -0.205474 0.029310 -0.128330
v -0.205474 0.013528 -0.131028
v 0.001958 0.000000 -0.353238
v -0.269218 0.000000 -0.353238
v 0.001958 -0.091458 -0.341201
v -0.269218 -0.091458 -0.341201
v 0.001958 -0.176684 -0.305913
v -0.269218 -0.176684 -0.305913
v 0.001958 -0.249868 -0.249777
v -0.269218 -0.249868 -0.249777
v 0.001958 -0.306025 -0.176619
v -0.269218 -0.306025 -0.176619
v 0.001958 -0.341326 -0.091425
v -0.269218 -0.341326 -0.091425
v 0.001958 -0.353367 -0.000000
v -0.269218 -0.353367 -0.000000
v 0.001958 -0.341326 0.091425
v -0.269218 -0.341326 0.091425
v 0.001958 -0.306025 0.176619
v -0.269218 -0.306025 0.176619
v 0.001958 -0.249868 0.249777
v -0.269218 -0.249868 0.249777
v 0.001958 -0.176684 0.305913
v -0.269218 -0.176684 0.305913
v 0.001958 -0.091458 0.341201
v -0.269218 -0.091458 0.341201
v 0.001958 0.000000 0.353238
v -0.269218 0.000000 0.353238
v 0.001958 0.091458 0.341201
v -0.269218 0.091458 0.341201
v 0.001958 0.176684 0.305913
v -0.269218 0.176684 0.305913
v 0.001958 0.249868 0.249777
v -0.269218 0.249868 0.249777
v 0.001958 0.306025 0.176619
v -0.269218 0.306025 0.176619
v 0.001958 0.341326 0.091425
v -0.269218 0.341326 0.091425
v 0.001958 0.353367 -0.000000
v -0.269218 0.353367 -0.000000
v 0.001958 0.341326 -0.091425
v -0.269218 0.341326 -0.091425
v 0.001958 0.306025 -0.176619
v -0.269218 0.306025 -0.176619
v 0.001958 0.249868 -0.249777
v -0.269218 0.249868 -0.249777
v 0.001958 0.176684 -0.305913
v -0.269218 0.176684 -0.305913
v 0.001958 0.091458 -0.341201
v -0.269218 0.091458 -0.341201
v 0.000000 0.000000 -0.000000
v -0.269218 -0.050261 -0.187509
v -0.269218 0.000000 -0.194124
v -0.269218 -0.097097 -0.168116
v -0.269218 -0.137317 -0.137266
v -0.269218 -0.168178 -0.097062
v -0.269218 -0.187578 -0.050243
v -0.269218 -0.194195 -0.000000
v -0.269218 -0.187578 0.050243
v -0.269218 -0.168178 0.097062
v -0.269218 -0.137317 0.137266
v -0.269218 -0.097098 0.168116
v -0.269218 -0.050261 0.187509
v -0.269218 0.000000 0.194124
v -0.269218 0.050261 0.187509
v -0.269218 0.097098 0.168116
v -0.269218 0.137317 0.137266
v -0.269218 0.168178 0.097062
v -0.269218 0.187578 0.050243
v -0.269218 0.194195 -0.000000
v -0.269218 0.187578 -0.050243
v -0.269218 0.168178 -0.097062
v -0.269218 0.137317 -0.137266
v -0.269218 0.097098 -0.168116
v -0.269218 0.050261 -0.187509
v -0.103197 -0.050261 -0.187509
v -0.103197 0.000000 -0.194124
v -0.103197 -0.097097 -0.168116
v -0.103197 -0.137317 -0.137266
v -0.103197 -0.168178 -0.097062
v -0.103197 -0.187578 -0.050243
v -0.103197 -0.194195 -0.000000
v -0.103197 -0.187578 0.050243
v -0.103197 -0.168178 0.097062
v -0.103197 -0.137317 0.137266
v -0.103197 -0.097098 0.168116
v -0.103197 -0.050261 0.187509
v -0.103197 0.000000 0.194124
v -0.103197 0.050261 0.187509
v -0.103197 0.097098 0.168116
v -0.103197 0.137317 0.137266
v -0.103197 0.168178 0.097062
v -0.103197 0.187578 0.050243
v -0.103197 0.194195 -0.000000
v -0.103197 0.187578 -0.050243
v -0.103197 0.168178 -0.097062
v -0.103197 0.137317 -0.137266
v -0.103197 0.097098 -0.168116
v -0.103197 0.050261 -0.187509
v -0.269218 -0.163649 -0.163589
v -0.269218 -0.200428 -0.115675
v -0.269218 0.000000 0.231349
v -0.269218 0.059900 0.223466
v -0.269218 0.163649 -0.163589
v -0.269218 0.115717 -0.200354
v -0.269218 -0.200428 0.115675
v -0.269218 -0.163649 0.163589
v -0.269218 0.223548 0.059877
v -0.269218 0.231434 -0.000000
v -0.269218 -0.223548 -0.059878
v -0.269218 0.115717 0.200354
v -0.269218 0.059899 -0.223466
v -0.269218 0.000000 -0.231349
v -0.269218 -0.059900 -0.223466
v -0.269218 -0.115717 0.200354
v -0.269218 0.223548 -0.059878
v -0.269218 -0.231434 -0.000000
v -0.269218 0.163649 0.163589
v -0.269218 -0.115717 -0.200354
v -0.269218 -0.059900 0.223466
v -0.269218 0.200428 -0.115675
v -0.269218 -0.223548 0.059877
v -0.269218 0.200428 0.115675
v -0.103197 0.000000 -0.000000
vn -1.0000 -0.0000 -0.0000
vn -0.2782 -0.9589 0.0554
vn -0.9853 -0.0758 -0.1533
vn -0.2787 -0.0810 0.9570
vn -0.2864 0.8215 0.4931
vn -0.2009 0.9694 -0.1414
vn -0.9842 -0.1751 0.0256
vn -0.2912 0.6584 -0.6941
vn -0.9843 -0.0298 0.1741
vn -0.9859 0.1196 -0.1167
vn -0.2002 0.1651 -0.9657
vn -0.9854 0.1508 0.0792
vn -0.2862 -0.3745 -0.8820
vn -0.2779 -0.2443 0.9290
vn -0.2854 -0.4756 -0.8321
vn -0.2913 0.7097 -0.6415
vn -0.1918 -0.8689 -0.4564
vn -0.1927 0.4346 0.8798
vn -0.2871 0.8709 0.3989
vn -0.1871 -0.7030 0.6862
vn -0.2775 -0.9344 0.2234
vn -0.0000 -0.0000 -1.0000
vn -0.0000 -0.2587 -0.9659
vn -0.0000 -0.4999 -0.8661
vn -0.0000 -0.7070 -0.7072
vn -0.0000 -0.8659 -0.5001
vn -0.0000 -0.9659 -0.2589
vn -0.0000 -1.0000 -0.0000
vn -0.0000 -0.9659 0.2589
vn -0.0000 -0.8659 0.5001
vn -0.0000 -0.7070 0.7072
vn -0.0000 -0.4999 0.8661
vn -0.0000 -0.2587 0.9659
vn -0.0000 -0.0000 1.0000
vn -0.0000 0.2587 0.9659
vn -0.0000 0.4999 0.8661
vn -0.0000 0.7070 0.7072
vn -0.0000 0.8659 0.5001
vn -0.0000 0.9659 0.2589
vn -0.0000 1.0000 -0.0000
vn -0.0000 0.9659 -0.2589
vn -0.0000 0.8659 -0.5001
vn -0.0000 0.7070 -0.7072
vn -0.0000 0.4999 -0.8661
vn 1.0000 -0.0000 -0.0055
vn 1.0000 -0.0000 -0.0000
vn 1.0000 -0.0014 -0.0054
vn -0.0000 0.2587 -0.9659
vn 1.0000 0.0039 0.0039
vn 1.0000 0.0048 0.0028
vn 1.0000 -0.0039 0.0039
vn 1.0000 -0.0028 0.0048
vn 1.0000 0.0048 -0.0028
vn 1.0000 0.0039 -0.0039
vn 1.0000 -0.0054 -0.0014
vn 1.0000 -0.0055 -0.0000
vn 1.0000 0.0054 0.0014
vn 1.0000 -0.0028 -0.0048
vn 1.0000 -0.0014 0.0054
vn 1.0000 -0.0000 0.0055
vn 1.0000 0.0014 0.0054
vn 1.0000 0.0028 -0.0048
vn 1.0000 -0.0054 0.0014
vn 1.0000 0.0055 -0.0000
vn 1.0000 -0.0039 -0.0039
vn 1.0000 0.0028 0.0048
vn 1.0000 0.0014 -0.0054
vn 1.0000 -0.0048 0.0028
vn 1.0000 0.0054 -0.0014
vn 1.0000 -0.0048 -0.0028
vt 0.157998 0.926266
vt 0.101780 0.956288
s 0
usemtl BASIC_COLOR
f 12/1/1 17/1/1 19/1/1
f 11/1/1 17/1/1 21/1/1
f 13/1/1 17/1/1 18/1/1
f 15/1/1 17/1/1 11/1/1
f 20/1/1 17/1/1 14/1/1
f 21/1/1 17/1/1 12/1/1
f 18/1/1 17/1/1 15/1/1
f 19/1/1 17/1/1 16/1/1
f 14/1/1 17/1/1 13/1/1
f 16/1/1 17/1/1 20/1/1
f 9/1/2 30/1/2 33/1/2 18/1/2
f 8/1/3 9/1/3 18/1/3 15/1/3
f 19/1/4 37/1/4 25/1/4 4/1/4
f 3/1/5 24/1/5 38/1/5 16/1/5
f 12/1/6 36/1/6 35/1/6 21/1/6
f 1/1/7 14/1/7 13/1/7 10/1/7
f 15/1/8 41/1/8 29/1/8 8/1/8
f 2/1/9 3/1/9 16/1/9 20/1/9
f 7/1/10 11/1/10 21/1/10 6/1/10
f 11/1/11 40/1/11 41/1/11 15/1/11
f 4/1/12 5/1/12 12/1/12 19/1/12
f 7/1/13 28/1/13 40/1/13 11/1/13
f 1/1/14 22/1/14 39/1/14 14/1/14
f 13/1/15 32/1/15 31/1/15 10/1/15
f 5/1/16 26/1/16 36/1/16 12/1/16
f 18/1/17 33/1/17 32/1/17 13/1/17
f 16/1/18 38/1/18 37/1/18 19/1/18
f 21/1/19 35/1/19 27/1/19 6/1/19
f 14/1/20 39/1/20 34/1/20 20/1/20
f 20/1/21 34/1/21 23/1/21 2/1/21
s 1
f 42/2/22 44/2/23 45/2/23 43/2/22
f 44/2/23 46/2/24 47/2/24 45/2/23
f 46/2/24 48/2/25 49/2/25 47/2/24
f 48/2/25 50/2/26 51/2/26 49/2/25
f 50/2/26 52/2/27 53/2/27 51/2/26
f 52/2/27 54/2/28 55/2/28 53/2/27
f 54/2/28 56/2/29 57/2/29 55/2/28
f 56/2/29 58/2/30 59/2/30 57/2/29
f 58/2/30 60/2/31 61/2/31 59/2/30
f 60/2/31 62/2/32 63/2/32 61/2/31
f 62/2/32 64/2/33 65/2/33 63/2/32
f 64/2/33 66/2/34 67/2/34 65/2/33
f 66/2/34 68/2/35 69/2/35 67/2/34
f 68/2/35 70/2/36 71/2/36 69/2/35
f 70/2/36 72/2/37 73/2/37 71/2/36
f 72/2/37 74/2/38 75/2/38 73/2/37
f 74/2/38 76/2/39 77/2/39 75/2/38
f 76/2/39 78/2/40 79/2/40 77/2/39
f 78/2/40 80/2/41 81/2/41 79/2/40
f 80/2/41 82/2/42 83/2/42 81/2/41
f 82/2/42 84/2/43 85/2/43 83/2/42
f 84/2/43 86/2/44 87/2/44 85/2/43
f 66/2/45 90/2/46 68/2/47
f 86/2/44 88/2/48 89/2/48 87/2/44
f 88/2/48 42/2/22 43/2/22 89/2/48
f 48/2/49 90/2/46 50/2/50
f 107/1/26 131/1/26 130/1/25 106/1/25
f 84/2/51 90/2/46 86/2/52
f 140/1/1 95/1/1 94/1/1 139/1/1
f 142/1/1 104/1/1 103/1/1 141/1/1
f 144/1/1 113/1/1 112/1/1 143/1/1
f 58/2/53 90/2/46 60/2/54
f 76/2/55 90/2/46 78/2/56
f 146/1/1 100/1/1 99/1/1 145/1/1
f 148/1/1 109/1/1 108/1/1 147/1/1
f 50/2/50 90/2/46 52/2/57
f 68/2/47 90/2/46 70/2/58
f 86/2/52 90/2/46 88/2/59
f 42/2/60 90/2/46 44/2/61
f 149/1/1 96/1/1 95/1/1 140/1/1
f 150/1/1 105/1/1 104/1/1 142/1/1
f 151/1/1 114/1/1 113/1/1 144/1/1
f 153/1/1 91/1/1 92/1/1 152/1/1
f 60/2/54 90/2/46 62/2/62
f 78/2/56 90/2/46 80/2/63
f 154/1/1 101/1/1 100/1/1 146/1/1
f 155/1/1 110/1/1 109/1/1 148/1/1
f 52/2/57 90/2/46 54/2/64
f 70/2/58 90/2/46 72/2/65
f 88/2/59 90/2/46 42/2/60
f 156/1/1 97/1/1 96/1/1 149/1/1
f 157/1/1 106/1/1 105/1/1 150/1/1
f 152/1/1 92/1/1 114/1/1 151/1/1
f 44/2/61 90/2/46 46/2/66
f 62/2/62 90/2/46 64/2/67
f 80/2/63 90/2/46 82/2/68
f 158/1/1 93/1/1 91/1/1 153/1/1
f 159/1/1 102/1/1 101/1/1 154/1/1
f 160/1/1 111/1/1 110/1/1 155/1/1
f 54/2/64 90/2/46 56/2/69
f 72/2/65 90/2/46 74/2/70
f 161/1/1 98/1/1 97/1/1 156/1/1
f 162/1/1 107/1/1 106/1/1 157/1/1
f 46/2/66 90/2/46 48/2/49
f 64/2/67 90/2/46 66/2/45
f 82/2/68 90/2/46 84/2/51
f 139/1/1 94/1/1 93/1/1 158/1/1
f 141/1/1 103/1/1 102/1/1 159/1/1
f 143/1/1 112/1/1 111/1/1 160/1/1
f 56/2/69 90/2/46 58/2/53
f 74/2/70 90/2/46 76/2/55
f 145/1/1 99/1/1 98/1/1 161/1/1
f 147/1/1 108/1/1 107/1/1 162/1/1
f 137/2/1 163/2/1 136/2/1
f 96/1/39 120/1/39 119/1/38 95/1/38
f 111/1/30 135/1/30 134/1/29 110/1/29
f 100/1/43 124/1/43 123/1/42 99/1/42
f 92/1/34 116/1/34 138/1/33 114/1/33
f 104/1/23 128/1/23 127/1/22 103/1/22
f 93/1/36 117/1/36 115/1/35 91/1/35
f 108/1/27 132/1/27 131/1/26 107/1/26
f 97/1/40 121/1/40 120/1/39 96/1/39
f 112/1/31 136/1/31 135/1/30 111/1/30
f 101/1/44 125/1/44 124/1/43 100/1/43
f 105/1/24 129/1/24 128/1/23 104/1/23
f 94/1/37 118/1/37 117/1/36 93/1/36
f 109/1/28 133/1/28 132/1/27 108/1/27
f 98/1/41 122/1/41 121/1/40 97/1/40
f 113/1/32 137/1/32 136/1/31 112/1/31
f 102/1/48 126/1/48 125/1/44 101/1/44
f 106/1/25 130/1/25 129/1/24 105/1/24
f 95/1/38 119/1/38 118/1/37 94/1/37
f 110/1/29 134/1/29 133/1/28 109/1/28
f 99/1/42 123/1/42 122/1/41 98/1/41
f 114/1/33 138/1/33 137/1/32 113/1/32
f 103/1/22 127/1/22 126/1/48 102/1/48
f 91/1/35 115/1/35 116/1/34 92/1/34
f 77/2/1 147/2/1 162/2/1 75/2/1
f 59/2/1 145/2/1 161/2/1 57/2/1
f 85/2/1 143/2/1 160/2/1 83/2/1
f 67/2/1 141/2/1 159/2/1 65/2/1
f 49/2/1 139/2/1 158/2/1 47/2/1
f 75/2/1 162/2/1 157/2/1 73/2/1
f 57/2/1 161/2/1 156/2/1 55/2/1
f 83/2/1 160/2/1 155/2/1 81/2/1
f 65/2/1 159/2/1 154/2/1 63/2/1
f 47/2/1 158/2/1 153/2/1 45/2/1
f 43/2/1 152/2/1 151/2/1 89/2/1
f 73/2/1 157/2/1 150/2/1 71/2/1
f 55/2/1 156/2/1 149/2/1 53/2/1
f 81/2/1 155/2/1 148/2/1 79/2/1
f 63/2/1 154/2/1 146/2/1 61/2/1
f 45/2/1 153/2/1 152/2/1 43/2/1
f 89/2/1 151/2/1 144/2/1 87/2/1
f 71/2/1 150/2/1 142/2/1 69/2/1
f 53/2/1 149/2/1 140/2/1 51/2/1
f 79/2/1 148/2/1 147/2/1 77/2/1
f 61/2/1 146/2/1 145/2/1 59/2/1
f 87/2/1 144/2/1 143/2/1 85/2/1
f 69/2/1 142/2/1 141/2/1 67/2/1
f 51/2/1 140/2/1 139/2/1 49/2/1
f 130/2/1 163/2/1 129/2/1
f 123/2/1 163/2/1 122/2/1
f 138/2/1 163/2/1 137/2/1
f 115/2/1 163/2/1 116/2/1
f 131/2/1 163/2/1 130/2/1
f 124/2/1 163/2/1 123/2/1
f 116/2/1 163/2/1 138/2/1
f 117/2/1 163/2/1 115/2/1
f 132/2/1 163/2/1 131/2/1
f 125/2/1 163/2/1 124/2/1
f 118/2/1 163/2/1 117/2/1
f 133/2/1 163/2/1 132/2/1
f 126/2/1 163/2/1 125/2/1
f 119/2/1 163/2/1 118/2/1
f 134/2/1 163/2/1 133/2/1
f 127/2/1 163/2/1 126/2/1
f 120/2/1 163/2/1 119/2/1
f 135/2/1 163/2/1 134/2/1
f 128/2/1 163/2/1 127/2/1
f 121/2/1 163/2/1 120/2/1
f 136/2/1 163/2/1 135/2/1
f 129/2/1 163/2/1 128/2/1
f 122/2/1 163/2/1 121/2/1
